<?xml version="1.0" standalone="no"?>
<!DOCTYPE svg PUBLIC "-//W3C//DTD SVG 20010904//EN"
 "http://www.w3.org/TR/2001/REC-SVG-20010904/DTD/svg10.dtd">
<svg version="1.0" xmlns="http://www.w3.org/2000/svg"
 width="2000.000000pt" height="2000.000000pt" viewBox="0 0 2000.000000 2000.000000"
 preserveAspectRatio="xMidYMid meet">
<metadata>
Created by potrace 1.11, written by Peter Selinger 2001-2013
</metadata>
<g transform="translate(0.000000,2000.000000) scale(0.100000,-0.100000)"
fill="#000000" stroke="none">
<path d="M9460 19379 c-1522 -94 -2962 -541 -4265 -1322 -1419 -851 -2605
-2089 -3408 -3559 -768 -1404 -1170 -3049 -1133 -4640 23 -1003 174 -1886 481
-2803 388 -1161 990 -2219 1792 -3148 222 -257 627 -677 640 -663 3 2 0 86 -6
187 -101 1705 478 3382 1614 4674 137 155 474 487 640 629 1523 1304 3537
1829 5510 1435 1080 -215 2083 -704 2941 -1433 153 -130 553 -527 680 -676
900 -1049 1423 -2272 1560 -3650 20 -204 30 -792 16 -985 -5 -77 -8 -142 -5
-145 7 -7 292 286 457 470 1561 1730 2418 3958 2416 6280 -2 2029 -657 3993
-1870 5608 -294 391 -529 662 -885 1017 -712 712 -1497 1282 -2389 1733 -1149
583 -2375 912 -3696 992 -193 12 -894 11 -1090 -1z m5815 -2191 c227 -241 381
-508 447 -775 30 -120 32 -358 5 -448 -77 -250 -264 -379 -552 -379 -295 -1
-492 147 -552 415 -67 299 54 685 325 1036 80 103 212 243 229 243 6 0 50 -42
98 -92z m-8555 -4513 c537 -87 972 -517 1064 -1050 21 -117 21 -336 1 -451
-86 -492 -463 -899 -950 -1025 -157 -41 -364 -50 -525 -25 -535 85 -951 485
-1067 1026 -13 63 -18 129 -18 250 0 177 13 266 61 410 152 457 561 799 1039
869 98 14 293 12 395 -4z m7020 0 c542 -88 971 -514 1065 -1059 22 -129 20
-331 -6 -461 -94 -491 -458 -878 -946 -1007 -112 -30 -127 -32 -313 -32 -213
-1 -274 8 -440 66 -379 132 -687 454 -804 839 -59 194 -71 453 -31 639 115
527 523 921 1050 1014 108 19 309 19 425 1z"/>
<path d="M6366 12440 c-358 -57 -654 -278 -806 -603 -135 -287 -130 -612 15
-902 187 -377 576 -605 995 -582 430 24 802 309 939 722 41 125 55 234 48 379
-22 466 -340 846 -807 968 -87 22 -293 32 -384 18z"/>
<path d="M13362 12435 c-257 -47 -487 -180 -644 -375 -86 -106 -169 -270 -204
-405 -23 -87 -27 -120 -27 -255 0 -136 3 -167 27 -255 166 -630 841 -963 1433
-707 294 126 513 381 600 697 25 91 28 115 27 265 0 147 -3 176 -27 264 -109
404 -440 704 -852 771 -109 18 -234 18 -333 0z"/>
<path d="M9790 9750 c-611 -26 -1210 -145 -1777 -351 -1949 -710 -3392 -2385
-3802 -4411 -75 -371 -120 -815 -121 -1190 l0 -137 172 173 c200 200 326 303
563 461 209 139 354 221 600 341 1049 510 2411 816 3980 894 275 14 1002 14
1280 0 2376 -117 4328 -787 5233 -1795 l72 -80 0 170 c0 1144 -342 2279 -977
3244 -241 366 -438 607 -767 937 -323 323 -582 536 -935 769 -1039 685 -2275
1027 -3521 975z"/>
<path d="M9430 4989 c-1706 -79 -3247 -479 -4235 -1102 -291 -183 -591 -450
-738 -657 -87 -123 -170 -291 -202 -410 -41 -155 -47 -142 113 -263 1392
-1055 3050 -1699 4777 -1856 2117 -193 4177 310 5948 1451 338 217 757 528
757 560 0 65 -54 220 -121 347 -70 133 -147 237 -279 374 -134 140 -257 245
-419 358 -902 630 -2385 1061 -4056 1179 -433 30 -1119 39 -1545 19z m736
-194 c60 -29 107 -82 130 -147 17 -47 16 -365 -7 -2648 -11 -1085 -8 -1050
-74 -1127 -99 -116 -288 -126 -396 -21 -22 22 -51 61 -62 86 -22 46 -22 56
-19 442 7 965 32 3189 37 3223 15 106 99 190 220 221 39 10 120 -4 171 -29z"/>
</g>
</svg>
