<?xml version="1.0" standalone="no"?>
<!DOCTYPE svg PUBLIC "-//W3C//DTD SVG 20010904//EN"
 "http://www.w3.org/TR/2001/REC-SVG-20010904/DTD/svg10.dtd">
<svg version="1.0" xmlns="http://www.w3.org/2000/svg"
 width="105.000000pt" height="105.000000pt" viewBox="0 0 105.000000 105.000000"
 preserveAspectRatio="xMidYMid meet">
<metadata>
Created by potrace 1.11, written by Peter Selinger 2001-2013
</metadata>
<g transform="translate(0.000000,105.000000) scale(0.100000,-0.100000)"
fill="#000000" stroke="none">
<path d="M149 878 c-2 -183 0 -188 91 -188 l56 0 0 -165 0 -166 -25 3 c-24 3
-25 6 -24 58 3 83 -7 90 -139 90 l-108 0 0 -102 0 -103 100 -102 100 -103 89
0 89 0 75 80 c41 44 77 80 81 80 3 0 6 -29 6 -64 0 -97 -2 -96 204 -96 l173 0
66 69 67 69 0 151 0 150 -132 3 -132 3 1 28 c1 15 1 47 2 72 l1 45 130 0 130
0 0 130 0 130 -170 0 -171 0 -84 -87 -85 -88 0 76 c0 45 -5 80 -12 87 -8 8
-66 12 -195 12 l-183 0 -1 -72z m476 -468 l49 -50 -51 0 -50 0 1 50 c0 28 1
50 1 50 0 0 23 -22 50 -50z"/>
</g>
</svg>
